<svg width="56" height="56" viewBox="0 0 56 56" fill="none" xmlns="http://www.w3.org/2000/svg">
<g clip-path="url(#clip0_311_680)">
<path fill-rule="evenodd" clip-rule="evenodd" d="M55.5 28C55.5 43.1869 43.1869 55.5 28 55.5C12.8131 55.5 0.5 43.1869 0.5 28C0.5 12.8131 12.8131 0.5 28 0.5C43.1869 0.5 55.5 12.8131 55.5 28ZM28.9854 20.8019C26.311 21.9133 20.9646 24.2165 12.9483 27.709C11.6467 28.2269 10.9638 28.7333 10.9019 29.2283C10.7965 30.0671 11.846 30.3971 13.2715 30.844C13.4663 30.9058 13.6679 30.9677 13.8742 31.0365C15.279 31.4925 17.1673 32.0265 18.1481 32.0471C19.0396 32.0654 20.0342 31.6988 21.1319 30.9471C28.621 25.8894 32.4871 23.3342 32.73 23.2792C32.9019 23.2402 33.1402 23.1898 33.3006 23.3342C33.461 23.4762 33.445 23.7467 33.429 23.82C33.3235 24.2623 29.2123 28.0871 27.081 30.0671C26.4165 30.6835 25.9467 31.1213 25.8504 31.2221C25.635 31.4444 25.415 31.6575 25.2042 31.8615C23.8979 33.1173 22.9217 34.0615 25.2592 35.6015C26.3821 36.3417 27.2804 36.9535 28.1765 37.5631C29.155 38.23 30.1313 38.8946 31.3963 39.7242C31.7171 39.935 32.0242 40.1527 32.3244 40.3658C33.4633 41.1794 34.4877 41.9081 35.7527 41.7935C36.486 41.7248 37.2469 41.035 37.6319 38.9748C38.5417 34.1027 40.3338 23.5519 40.7485 19.2023C40.7738 18.8412 40.7584 18.4783 40.7027 18.1206C40.6694 17.8317 40.5287 17.5659 40.3085 17.3758C39.9808 17.1077 39.4721 17.0504 39.2429 17.055C38.2094 17.0733 36.6235 17.6256 28.9854 20.8019Z" fill="white"/>
</g>
<defs>
<clipPath id="clip0_311_680">
<rect width="55" height="55" fill="white" transform="translate(0.5 0.5)"/>
</clipPath>
</defs>
</svg>
