<svg width="55" height="56" viewBox="0 0 55 56" fill="none" xmlns="http://www.w3.org/2000/svg">
<g clip-path="url(#clip0_311_686)">
<path fill-rule="evenodd" clip-rule="evenodd" d="M39.9094 33.4588C39.2265 33.1174 35.8783 31.472 35.255 31.2428C34.6317 31.0159 34.1779 30.9036 33.7219 31.5865C33.2681 32.2649 31.9642 33.8003 31.5677 34.2541C31.169 34.7101 30.7725 34.7651 30.0919 34.4259C29.4112 34.0822 27.2158 33.3649 24.6148 31.0457C22.5913 29.2399 21.2231 27.0101 20.8267 26.3272C20.4302 25.6466 20.7831 25.2776 21.1246 24.9384C21.4317 24.6336 21.8052 24.1432 22.1467 23.7468C22.4881 23.348 22.6004 23.0638 22.8273 22.6078C23.0565 22.1541 22.9419 21.7576 22.77 21.4161C22.6004 21.0747 21.2392 17.722 20.6708 16.3584C20.1185 15.0316 19.5571 15.2126 19.14 15.1897C18.7413 15.1713 18.2875 15.1668 17.8338 15.1668C17.38 15.1668 16.6421 15.3363 16.0187 16.0193C15.3931 16.6999 13.6354 18.3476 13.6354 21.7003C13.6354 25.0507 16.0738 28.2888 16.4152 28.7449C16.7567 29.1986 21.2163 36.0782 28.0477 39.0276C29.6748 39.7288 30.9421 40.1482 31.9298 40.4599C33.5615 40.9801 35.0465 40.9068 36.2198 40.7303C37.526 40.5355 40.2485 39.0826 40.8169 37.4922C41.3829 35.9018 41.3829 34.5382 41.2133 34.2541C41.0438 33.9699 40.59 33.8003 39.9071 33.4588H39.9094ZM27.484 50.424H27.4748C23.4172 50.4248 19.4342 49.334 15.9431 47.2661L15.1181 46.7757L6.54271 49.0261L8.83208 40.6661L8.29354 39.809C6.02511 36.1982 4.82463 32.0192 4.83083 27.7549C4.83542 15.2653 14.9967 5.10405 27.4931 5.10405C33.5431 5.10405 39.231 7.46447 43.5073 11.7453C45.6165 13.8458 47.2882 16.3437 48.4258 19.0944C49.5634 21.8452 50.1443 24.7942 50.1348 27.7709C50.1302 40.2605 39.969 50.424 27.484 50.424ZM46.7615 8.49343C44.2365 5.95179 41.2322 3.93653 37.9227 2.56443C34.6132 1.19232 31.0643 0.490659 27.4817 0.500094C12.4621 0.500094 0.23375 12.7261 0.229167 27.7526C0.222207 32.5347 1.47669 37.2341 3.86604 41.3765L0 55.5001L14.4467 51.7097C18.443 53.887 22.9215 55.0279 27.4725 55.028H27.484C42.5035 55.028 54.7319 42.802 54.7365 27.7732C54.7475 24.192 54.0484 20.6441 52.6795 17.3348C51.3106 14.0254 49.2992 11.0204 46.7615 8.49343Z" fill="white"/>
</g>
<defs>
<clipPath id="clip0_311_686">
<rect width="55" height="55" fill="white" transform="translate(0 0.5)"/>
</clipPath>
</defs>
</svg>
