<svg width="26" height="28" viewBox="0 0 26 28" fill="none" xmlns="http://www.w3.org/2000/svg">
<path d="M12.9723 25.25H12.9993C17.1799 25.25 20.5827 21.7175 20.5827 17.375V10.625C20.5827 6.30387 17.1951 2.77925 13.0199 2.75H12.9549C8.79493 2.77475 5.41602 6.30162 5.41602 10.625V17.375C5.41602 21.7175 8.80577 25.25 12.9723 25.25ZM7.58268 10.625C7.58467 9.13671 8.15377 7.70972 9.16565 6.65576C10.1775 5.6018 11.5499 5.00654 12.9831 5C15.9785 5.00675 18.416 7.53012 18.416 10.625V17.375C18.416 20.4766 15.9861 23 12.9993 23H12.9723C9.95085 23 7.58268 20.5295 7.58268 17.375V10.625Z" fill="white"/>
<path d="M11.918 7.25H14.0846V14H11.918V7.25Z" fill="white"/>
</svg>
