<svg width="450" height="359" viewBox="0 0 450 359" fill="none" xmlns="http://www.w3.org/2000/svg">
<path d="M224.788 26.1962C217.554 26.1962 211.69 20.332 211.69 13.0981C211.69 5.86422 217.554 0 224.788 0C232.022 0 237.886 5.86422 237.886 13.0981C237.886 20.332 232.022 26.1962 224.788 26.1962Z" fill="#FAEED4"/>
<path d="M265.452 44.7667C267.081 43.1382 267.081 40.498 265.452 38.8696L251.936 25.3533C250.308 23.7249 247.668 23.7249 246.039 25.3533L224.788 46.6048L203.536 25.3533C201.908 23.7249 199.268 23.7249 197.639 25.3533L184.123 38.8696C182.494 40.498 182.494 43.1383 184.123 44.7667L205.374 66.0182L184.123 87.2696C182.494 88.8981 182.494 91.5383 184.123 93.1667L197.639 106.683C199.268 108.311 201.908 108.311 203.536 106.683L224.788 85.4315L246.039 106.683C247.668 108.311 250.308 108.311 251.936 106.683L265.453 93.1667C267.081 91.5383 267.081 88.8981 265.453 87.2697L244.201 66.0181L265.452 44.7667Z" fill="#FAEED4"/>
<path d="M158.77 66.0182C158.77 73.2521 164.634 79.1163 171.868 79.1163C179.101 79.1163 184.966 73.2521 184.966 66.0182C184.966 58.7843 179.101 52.9201 171.868 52.9201C164.634 52.9201 158.77 58.7843 158.77 66.0182Z" fill="#FAEED4"/>
<path d="M277.708 79.1163C270.474 79.1163 264.61 73.252 264.61 66.0182C264.61 58.7843 270.474 52.9201 277.708 52.9201C284.942 52.9201 290.806 58.7843 290.806 66.0182C290.806 73.252 284.942 79.1163 277.708 79.1163Z" fill="#FAEED4"/>
<path d="M211.69 118.938C211.69 126.172 217.554 132.036 224.788 132.036C232.022 132.036 237.886 126.172 237.886 118.938C237.886 111.704 232.022 105.84 224.788 105.84C217.554 105.84 211.69 111.704 211.69 118.938Z" fill="#FAEED4"/>
<path d="M169.101 165.719V173.756H181.589V199.628H190.593V173.756H203.081V165.719H169.101Z" fill="#FAEED4"/>
<path d="M280.475 165.719L274.861 172.839L269.609 172.798C268.117 172.798 260.371 172.812 254.16 172.824V179.106H269.445V185.729L263.049 185.691C262.184 185.691 258.314 185.7 254.541 185.709C255.117 187.707 256.281 188.882 257.593 189.679C259.755 190.995 262.723 191.482 265.404 191.482H280.472L274.861 199.629H265.404C262.032 199.629 257.342 199.062 253.358 196.639C249.078 194.034 246.014 189.507 246.014 182.706V168.959L246.04 168.957V165.719H280.475Z" fill="#FAEED4"/>
<path d="M207.49 165.719V199.628L216.17 199.628V190.056C216.17 188.833 217.496 185.002 223.887 185.002C230.718 185.002 232.449 189.24 232.449 190.056V199.629H241.129V165.719H232.449V178.122C230.016 176.997 227.135 176.323 223.887 176.323C220.904 176.323 218.333 176.877 216.17 177.808V165.719H207.49Z" fill="#FAEED4"/>
<path d="M80.5997 235.255L98.6534 217.202C86.5138 217.202 48.5387 217.202 36.399 217.202C16.3739 217.202 0.0839844 233.492 0.0839844 253.517C0.0839844 273.542 16.2701 289.728 36.2953 289.728H98.6534V253.517H80.5997V271.778H36.399C26.3346 271.778 18.1378 263.581 18.1378 253.517C18.1378 243.452 26.3346 235.255 36.399 235.255C40.4456 235.255 70.4314 235.152 74.5817 235.152L80.5997 235.255Z" fill="#FAEED4"/>
<path d="M132.645 256.59C132.645 252.325 134.368 246.442 138.441 241.743C142.262 237.334 148.468 233.585 158.501 233.585C178.405 233.585 186.832 248.639 186.832 256.59V289.728H205.854V256.59C205.854 238.841 189.604 214.563 158.501 214.563C143.03 214.563 131.552 220.647 124.066 229.284C116.832 237.63 113.623 248.005 113.623 256.59V289.724L132.645 289.728V256.59Z" fill="#FAEED4"/>
<path d="M239.846 250.483C239.846 245.849 241.251 241.667 243.819 238.776C246.198 236.097 250.397 233.585 258.092 233.585C265.833 233.585 270.725 236.143 273.674 239.136C276.734 242.241 278.281 246.397 278.281 250.483V289.728H297.303V250.483C297.303 245.849 298.708 241.667 301.276 238.776C303.655 236.097 307.854 233.585 315.549 233.585C323.29 233.585 328.182 236.143 331.131 239.136C334.191 242.241 335.738 246.397 335.738 250.483V289.728H354.76V250.483C354.76 241.72 351.465 232.671 344.68 225.784C337.783 218.785 327.825 214.563 315.549 214.563C303.385 214.563 293.795 218.723 287.303 225.866L287.223 225.784C280.326 218.785 270.368 214.563 258.092 214.563C245.771 214.563 236.091 218.831 229.596 226.144C223.29 233.244 220.824 242.268 220.824 250.483V289.728H239.846V250.483Z" fill="#FAEED4"/>
<path d="M449.491 217.745L432.65 232.859L419.82 232.772C416.653 232.772 400.208 232.802 387.023 232.826V246.161H426.078V260.222L405.893 260.141C404.057 260.141 395.841 260.16 387.833 260.179C389.055 264.42 391.527 266.914 394.311 268.608C398.9 271.4 405.201 272.435 410.893 272.435H449.491L432.65 289.728H410.892C403.735 289.728 393.778 288.526 385.322 283.381C376.235 277.852 369.73 268.241 369.73 253.804V224.622L369.786 224.617V217.745H449.491Z" fill="#FAEED4"/>
<path d="M98.7122 336.988C97.2459 336.988 95.9628 336.665 94.863 336.018C93.7632 335.371 92.9006 334.39 92.2753 333.074C91.6715 331.737 91.3696 330.055 91.3696 328.028C91.3696 325.98 91.6607 324.298 92.2429 322.982C92.8252 321.667 93.6662 320.686 94.766 320.039C95.8657 319.392 97.1812 319.068 98.7122 319.068C100.351 319.068 101.817 319.446 103.111 320.2C104.427 320.934 105.462 321.969 106.217 323.306C106.993 324.643 107.381 326.217 107.381 328.028C107.381 329.861 106.993 331.446 106.217 332.783C105.462 334.12 104.427 335.155 103.111 335.888C101.817 336.622 100.351 336.988 98.7122 336.988ZM88.4261 343.005V319.327H93.2457V322.885L93.1486 328.061L93.4721 333.204V343.005H88.4261ZM97.8389 332.848C98.6799 332.848 99.4238 332.654 100.071 332.266C100.739 331.877 101.268 331.328 101.656 330.616C102.065 329.883 102.27 329.02 102.27 328.028C102.27 327.015 102.065 326.152 101.656 325.44C101.268 324.729 100.739 324.179 100.071 323.791C99.4238 323.403 98.6799 323.209 97.8389 323.209C96.9979 323.209 96.2431 323.403 95.5746 323.791C94.9061 324.179 94.3778 324.729 93.9896 325.44C93.6015 326.152 93.4074 327.015 93.4074 328.028C93.4074 329.02 93.6015 329.883 93.9896 330.616C94.3778 331.328 94.9061 331.877 95.5746 332.266C96.2431 332.654 96.9979 332.848 97.8389 332.848ZM110.759 336.729V319.327H115.579V324.244L114.899 322.82C115.417 321.591 116.247 320.664 117.39 320.039C118.533 319.392 119.924 319.068 121.563 319.068V323.726C121.347 323.705 121.153 323.694 120.98 323.694C120.808 323.672 120.625 323.661 120.431 323.661C119.05 323.661 117.929 324.06 117.067 324.858C116.226 325.635 115.805 326.853 115.805 328.513V336.729H110.759ZM133.073 336.988C131.089 336.988 129.343 336.6 127.833 335.824C126.345 335.047 125.191 333.991 124.372 332.654C123.553 331.295 123.143 329.753 123.143 328.028C123.143 326.281 123.542 324.74 124.34 323.403C125.159 322.044 126.27 320.987 127.671 320.233C129.073 319.456 130.658 319.068 132.426 319.068C134.13 319.068 135.661 319.435 137.02 320.168C138.4 320.88 139.489 321.915 140.287 323.273C141.084 324.61 141.483 326.217 141.483 328.093C141.483 328.287 141.473 328.513 141.451 328.772C141.429 329.009 141.408 329.236 141.386 329.451H127.251V326.508H138.734L136.793 327.381C136.793 326.476 136.61 325.688 136.243 325.02C135.877 324.351 135.37 323.834 134.723 323.467C134.076 323.079 133.321 322.885 132.459 322.885C131.596 322.885 130.831 323.079 130.162 323.467C129.515 323.834 129.008 324.362 128.642 325.052C128.275 325.721 128.092 326.519 128.092 327.446V328.222C128.092 329.171 128.297 330.012 128.706 330.745C129.138 331.457 129.731 332.007 130.486 332.395C131.262 332.762 132.168 332.945 133.203 332.945C134.13 332.945 134.939 332.805 135.629 332.524C136.34 332.244 136.987 331.823 137.569 331.263L140.254 334.174C139.456 335.08 138.454 335.781 137.246 336.277C136.038 336.751 134.647 336.988 133.073 336.988ZM167.13 319.068C168.51 319.068 169.728 319.349 170.785 319.909C171.863 320.448 172.704 321.289 173.308 322.432C173.933 323.554 174.246 324.998 174.246 326.767V336.729H169.2V327.543C169.2 326.141 168.909 325.106 168.326 324.438C167.744 323.769 166.925 323.435 165.868 323.435C165.135 323.435 164.477 323.607 163.895 323.953C163.313 324.276 162.86 324.772 162.536 325.44C162.213 326.109 162.051 326.961 162.051 327.996V336.729H157.005V327.543C157.005 326.141 156.714 325.106 156.132 324.438C155.571 323.769 154.762 323.435 153.706 323.435C152.973 323.435 152.315 323.607 151.733 323.953C151.15 324.276 150.698 324.772 150.374 325.44C150.051 326.109 149.889 326.961 149.889 327.996V336.729H144.843V319.327H149.662V324.082L148.757 322.691C149.361 321.505 150.212 320.61 151.312 320.006C152.433 319.381 153.706 319.068 155.129 319.068C156.725 319.068 158.116 319.478 159.302 320.297C160.509 321.095 161.307 322.324 161.695 323.985L159.916 323.5C160.498 322.141 161.426 321.063 162.698 320.265C163.992 319.467 165.469 319.068 167.13 319.068ZM178.769 336.729V319.327H183.815V336.729H178.769ZM181.292 316.901C180.364 316.901 179.61 316.631 179.027 316.092C178.445 315.553 178.154 314.885 178.154 314.087C178.154 313.289 178.445 312.62 179.027 312.081C179.61 311.542 180.364 311.273 181.292 311.273C182.219 311.273 182.974 311.531 183.556 312.049C184.138 312.545 184.429 313.192 184.429 313.99C184.429 314.831 184.138 315.532 183.556 316.092C182.995 316.631 182.241 316.901 181.292 316.901ZM195.841 336.988C194.396 336.988 193.102 336.708 191.959 336.147C190.838 335.586 189.964 334.735 189.339 333.592C188.714 332.427 188.401 330.95 188.401 329.16V319.327H193.447V328.416C193.447 329.861 193.749 330.929 194.353 331.619C194.978 332.287 195.851 332.621 196.973 332.621C197.749 332.621 198.439 332.46 199.043 332.136C199.647 331.791 200.121 331.274 200.466 330.584C200.811 329.872 200.984 328.988 200.984 327.931V319.327H206.03V336.729H201.242V331.942L202.116 333.333C201.534 334.541 200.671 335.457 199.528 336.082C198.407 336.686 197.178 336.988 195.841 336.988ZM232.991 319.068C234.371 319.068 235.59 319.349 236.646 319.909C237.725 320.448 238.566 321.289 239.169 322.432C239.795 323.554 240.107 324.998 240.107 326.767V336.729H235.061V327.543C235.061 326.141 234.77 325.106 234.188 324.438C233.606 323.769 232.786 323.435 231.73 323.435C230.996 323.435 230.339 323.607 229.757 323.953C229.174 324.276 228.721 324.772 228.398 325.44C228.075 326.109 227.913 326.961 227.913 327.996V336.729H222.867V327.543C222.867 326.141 222.576 325.106 221.993 324.438C221.433 323.769 220.624 323.435 219.567 323.435C218.834 323.435 218.177 323.607 217.594 323.953C217.012 324.276 216.559 324.772 216.236 325.44C215.912 326.109 215.751 326.961 215.751 327.996V336.729H210.704V319.327H215.524V324.082L214.618 322.691C215.222 321.505 216.074 320.61 217.174 320.006C218.295 319.381 219.567 319.068 220.991 319.068C222.586 319.068 223.977 319.478 225.163 320.297C226.371 321.095 227.169 322.324 227.557 323.985L225.778 323.5C226.36 322.141 227.287 321.063 228.56 320.265C229.854 319.467 231.331 319.068 232.991 319.068ZM253.791 336.729V312.728H258.837V336.729H253.791ZM271.801 336.988C269.946 336.988 268.297 336.6 266.852 335.824C265.429 335.047 264.296 333.991 263.455 332.654C262.636 331.295 262.226 329.753 262.226 328.028C262.226 326.281 262.636 324.74 263.455 323.403C264.296 322.044 265.429 320.987 266.852 320.233C268.297 319.456 269.946 319.068 271.801 319.068C273.634 319.068 275.273 319.456 276.718 320.233C278.162 320.987 279.294 322.033 280.114 323.37C280.933 324.707 281.343 326.26 281.343 328.028C281.343 329.753 280.933 331.295 280.114 332.654C279.294 333.991 278.162 335.047 276.718 335.824C275.273 336.6 273.634 336.988 271.801 336.988ZM271.801 332.848C272.642 332.848 273.397 332.654 274.065 332.266C274.734 331.877 275.262 331.328 275.65 330.616C276.038 329.883 276.232 329.02 276.232 328.028C276.232 327.015 276.038 326.152 275.65 325.44C275.262 324.729 274.734 324.179 274.065 323.791C273.397 323.403 272.642 323.209 271.801 323.209C270.96 323.209 270.205 323.403 269.537 323.791C268.868 324.179 268.329 324.729 267.919 325.44C267.531 326.152 267.337 327.015 267.337 328.028C267.337 329.02 267.531 329.883 267.919 330.616C268.329 331.328 268.868 331.877 269.537 332.266C270.205 332.654 270.96 332.848 271.801 332.848ZM292.059 336.988C290.614 336.988 289.32 336.708 288.177 336.147C287.056 335.586 286.182 334.735 285.557 333.592C284.932 332.427 284.619 330.95 284.619 329.16V319.327H289.665V328.416C289.665 329.861 289.967 330.929 290.571 331.619C291.196 332.287 292.069 332.621 293.191 332.621C293.967 332.621 294.657 332.46 295.261 332.136C295.865 331.791 296.339 331.274 296.684 330.584C297.029 329.872 297.202 328.988 297.202 327.931V319.327H302.248V336.729H297.46V331.942L298.334 333.333C297.752 334.541 296.889 335.457 295.746 336.082C294.625 336.686 293.396 336.988 292.059 336.988ZM317.5 319.068C318.88 319.068 320.109 319.349 321.187 319.909C322.287 320.448 323.15 321.289 323.775 322.432C324.4 323.554 324.713 324.998 324.713 326.767V336.729H319.667V327.543C319.667 326.141 319.354 325.106 318.729 324.438C318.125 323.769 317.263 323.435 316.141 323.435C315.343 323.435 314.621 323.607 313.974 323.953C313.349 324.276 312.853 324.783 312.486 325.473C312.141 326.163 311.969 327.047 311.969 328.125V336.729H306.923V319.327H311.742V324.147L310.836 322.691C311.462 321.527 312.357 320.632 313.521 320.006C314.686 319.381 316.012 319.068 317.5 319.068ZM337.597 343.263C335.958 343.263 334.373 343.058 332.842 342.649C331.333 342.261 330.071 341.668 329.058 340.87L331.063 337.247C331.796 337.851 332.724 338.325 333.845 338.67C334.988 339.037 336.109 339.22 337.209 339.22C338.999 339.22 340.293 338.821 341.091 338.023C341.91 337.225 342.32 336.039 342.32 334.465V331.845L342.643 327.478L342.578 323.079V319.327H347.366V333.818C347.366 337.053 346.525 339.436 344.843 340.967C343.161 342.498 340.745 343.263 337.597 343.263ZM336.821 335.888C335.203 335.888 333.737 335.543 332.422 334.853C331.128 334.142 330.082 333.16 329.284 331.91C328.508 330.637 328.12 329.16 328.12 327.478C328.12 325.775 328.508 324.298 329.284 323.047C330.082 321.775 331.128 320.793 332.422 320.103C333.737 319.413 335.203 319.068 336.821 319.068C338.287 319.068 339.581 319.37 340.702 319.974C341.824 320.556 342.697 321.473 343.322 322.723C343.948 323.953 344.26 325.537 344.26 327.478C344.26 329.398 343.948 330.982 343.322 332.233C342.697 333.462 341.824 334.379 340.702 334.983C339.581 335.586 338.287 335.888 336.821 335.888ZM337.824 331.748C338.708 331.748 339.495 331.576 340.185 331.23C340.875 330.864 341.414 330.357 341.802 329.71C342.19 329.063 342.384 328.319 342.384 327.478C342.384 326.616 342.19 325.872 341.802 325.246C341.414 324.599 340.875 324.103 340.185 323.758C339.495 323.392 338.708 323.209 337.824 323.209C336.939 323.209 336.152 323.392 335.462 323.758C334.772 324.103 334.222 324.599 333.813 325.246C333.424 325.872 333.23 326.616 333.23 327.478C333.23 328.319 333.424 329.063 333.813 329.71C334.222 330.357 334.772 330.864 335.462 331.23C336.152 331.576 336.939 331.748 337.824 331.748ZM360.699 336.988C358.715 336.988 356.968 336.6 355.459 335.824C353.971 335.047 352.817 333.991 351.998 332.654C351.178 331.295 350.768 329.753 350.768 328.028C350.768 326.281 351.167 324.74 351.965 323.403C352.785 322.044 353.895 320.987 355.297 320.233C356.699 319.456 358.284 319.068 360.052 319.068C361.755 319.068 363.286 319.435 364.645 320.168C366.025 320.88 367.114 321.915 367.912 323.273C368.71 324.61 369.109 326.217 369.109 328.093C369.109 328.287 369.098 328.513 369.076 328.772C369.055 329.009 369.033 329.236 369.012 329.451H354.876V326.508H366.359L364.419 327.381C364.419 326.476 364.235 325.688 363.869 325.02C363.502 324.351 362.995 323.834 362.348 323.467C361.701 323.079 360.947 322.885 360.084 322.885C359.222 322.885 358.456 323.079 357.788 323.467C357.141 323.834 356.634 324.362 356.267 325.052C355.901 325.721 355.717 326.519 355.717 327.446V328.222C355.717 329.171 355.922 330.012 356.332 330.745C356.763 331.457 357.356 332.007 358.111 332.395C358.887 332.762 359.793 332.945 360.828 332.945C361.755 332.945 362.564 332.805 363.254 332.524C363.966 332.244 364.613 331.823 365.195 331.263L367.88 334.174C367.082 335.08 366.079 335.781 364.871 336.277C363.664 336.751 362.273 336.988 360.699 336.988Z" fill="#FAEED4"/>
</svg>
