<svg width="51" height="50" viewBox="0 0 51 50" fill="none" xmlns="http://www.w3.org/2000/svg">
<path d="M25.7139 9.92007C22.9745 9.92007 20.7538 7.69939 20.7538 4.96004C20.7538 2.22068 22.9745 0 25.7139 0C28.4532 0 30.6739 2.22068 30.6739 4.96003C30.6739 7.69939 28.4532 9.92007 25.7139 9.92007Z" fill="#FAEED4"/>
<path d="M41.113 16.9524C41.7296 16.3357 41.7296 15.3359 41.113 14.7193L35.9946 9.6009C35.3779 8.98423 34.3781 8.98423 33.7614 9.60089L25.7139 17.6485L17.6663 9.6009C17.0496 8.98423 16.0498 8.98423 15.4332 9.6009L10.3148 14.7193C9.69811 15.3359 9.69811 16.3357 10.3148 16.9524L18.3623 25L10.3148 33.0476C9.6981 33.6642 9.6981 34.664 10.3148 35.2807L15.4331 40.3991C16.0498 41.0158 17.0496 41.0158 17.6663 40.3991L25.7139 32.3515L33.7614 40.3991C34.3781 41.0158 35.3779 41.0158 35.9946 40.3991L41.113 35.2807C41.7296 34.6641 41.7296 33.6642 41.113 33.0476L33.0654 25L41.113 16.9524Z" fill="#FAEED4"/>
<path d="M0.713867 25C0.713867 27.7394 2.93455 29.96 5.6739 29.96C8.41325 29.96 10.6339 27.7394 10.6339 25C10.6339 22.2606 8.41325 20.04 5.6739 20.04C2.93455 20.04 0.713868 22.2606 0.713867 25Z" fill="#FAEED4"/>
<path d="M45.7538 29.96C43.0145 29.96 40.7938 27.7393 40.7938 25C40.7938 22.2606 43.0145 20.04 45.7538 20.04C48.4932 20.04 50.7139 22.2606 50.7139 25C50.7139 27.7393 48.4932 29.96 45.7538 29.96Z" fill="#FAEED4"/>
<path d="M20.7538 45.04C20.7538 47.7793 22.9745 50 25.7139 50C28.4532 50 30.6739 47.7793 30.6739 45.04C30.6739 42.3006 28.4532 40.0799 25.7139 40.0799C22.9745 40.0799 20.7538 42.3006 20.7538 45.04Z" fill="#FAEED4"/>
</svg>
