<svg width="40" height="50" viewBox="0 0 40 50" fill="none" xmlns="http://www.w3.org/2000/svg">
<path d="M20.3567 0C15.149 0.0061437 10.1564 2.07763 6.47393 5.76005C2.79151 9.44246 0.720032 14.4351 0.713888 19.6429C0.707651 23.8986 2.09778 28.0389 4.67103 31.4286C4.67103 31.4286 5.20675 32.1339 5.29425 32.2357L20.3567 50L35.4264 32.2268C35.505 32.1321 36.0425 31.4286 36.0425 31.4286L36.0442 31.4232C38.6162 28.035 40.0057 23.8967 39.9996 19.6429C39.9935 14.4351 37.922 9.44246 34.2396 5.76005C30.5571 2.07763 25.5645 0.0061437 20.3567 0ZM20.3567 26.7857C18.944 26.7857 17.563 26.3668 16.3884 25.5819C15.2137 24.7971 14.2982 23.6815 13.7576 22.3763C13.217 21.0711 13.0755 19.6349 13.3511 18.2494C13.6267 16.8638 14.307 15.591 15.306 14.5921C16.3049 13.5931 17.5777 12.9129 18.9632 12.6372C20.3488 12.3616 21.785 12.5031 23.0902 13.0437C24.3954 13.5843 25.5109 14.4999 26.2958 15.6745C27.0807 16.8491 27.4996 18.2301 27.4996 19.6429C27.4972 21.5365 26.7439 23.352 25.4049 24.691C24.0659 26.03 22.2504 26.7833 20.3567 26.7857Z" fill="#FAEED4"/>
</svg>
