<svg width="400" height="111" viewBox="0 0 400 111" fill="none" xmlns="http://www.w3.org/2000/svg">
<path d="M0.724098 0V7.19421H11.8398V30.3522H19.854V7.19421H30.9687V0H0.724098Z" fill="#FAEED4"/>
<path d="M99.8534 0L94.8568 6.37304L90.1827 6.33641C88.8549 6.33641 81.96 6.34884 76.4318 6.35922V11.9821H90.0366V17.9108L84.3433 17.8767C83.5737 17.8767 80.129 17.8847 76.7711 17.8929C77.2836 19.6808 78.32 20.7325 79.4872 21.4467C81.4115 22.6242 84.0533 23.0605 86.4398 23.0605H99.8513L94.8568 30.3522H86.4397C83.4386 30.3522 79.2638 29.8453 75.7183 27.6758C71.9085 25.3446 69.1812 21.2921 69.1812 15.2046V2.89976L69.2045 2.8979V0H99.8534Z" fill="#FAEED4"/>
<path d="M34.8918 0V30.3521L42.6173 30.3512V21.7834C42.6174 20.6886 43.7978 17.2602 49.4863 17.2602C55.5658 17.2602 57.1066 21.0536 57.1066 21.7834V30.3522H64.8321V0H57.1066V11.1019C54.9414 10.0943 52.3771 9.49106 49.4863 9.49106C46.8312 9.49106 44.5427 9.98693 42.6173 10.8206V0H34.8918Z" fill="#FAEED4"/>
<path d="M71.6638 62.2417L87.7328 46.0818C76.9278 46.0818 43.1276 46.0818 32.3226 46.0818C14.499 46.0818 0 60.6629 0 78.5873C0 96.5118 14.4066 111 32.2303 111H87.7328V78.5873H71.6638V94.933H32.3226C23.3646 94.933 16.069 87.596 16.069 78.5873C16.069 69.5787 23.3646 62.2417 32.3226 62.2417C35.9243 62.2417 62.6135 62.1488 66.3075 62.1488L71.6638 62.2417Z" fill="#FAEED4"/>
<path d="M117.988 81.3381C117.988 77.5207 119.521 72.2544 123.146 68.0485C126.547 64.1021 132.071 60.7467 141.001 60.7467C158.716 60.7467 166.217 74.2213 166.217 81.338V111H183.148V81.338C183.148 65.4513 168.685 43.72 141.001 43.72C127.231 43.72 117.015 49.1661 110.352 56.8965C103.913 64.3675 101.057 73.6536 101.057 81.3379V110.997L117.988 111V81.3381Z" fill="#FAEED4"/>
<path d="M213.403 75.8719C213.403 71.7238 214.653 67.9811 216.939 65.3927C219.057 62.9947 222.794 60.7466 229.643 60.7466C236.533 60.7466 240.887 63.0364 243.512 65.7148C246.236 68.4948 247.613 72.2141 247.613 75.8719V111H264.544V75.8719C264.544 71.7238 265.794 67.981 268.08 65.3927C270.198 62.9947 273.934 60.7466 280.784 60.7466C287.673 60.7466 292.028 63.0364 294.652 65.7148C297.376 68.4948 298.753 72.2141 298.753 75.8719V111H315.684V75.8719C315.684 68.028 312.751 59.9279 306.712 53.7642C300.573 47.4987 291.71 43.72 280.784 43.72C269.957 43.72 261.422 47.4436 255.643 53.8371L255.572 53.7642C249.433 47.4987 240.569 43.72 229.643 43.72C218.677 43.72 210.061 47.5404 204.28 54.0861C198.667 60.4417 196.473 68.5182 196.472 75.8719V111H213.403V75.8719Z" fill="#FAEED4"/>
<path d="M400 46.568L385.01 60.0968L373.59 60.019C370.772 60.019 356.135 60.0454 344.4 60.0674V72.0037H379.161V84.5893L361.195 84.5169C359.561 84.5169 352.248 84.5338 345.12 84.5512C346.208 88.3466 348.408 90.5792 350.886 92.0953C354.971 94.5948 360.579 95.5212 365.645 95.5212H400L385.01 111H365.645C359.274 111 350.412 109.924 342.885 105.319C334.798 100.37 329.008 91.7672 329.008 78.8446V52.7236L329.058 52.7197V46.568H400Z" fill="#FAEED4"/>
</svg>
